M48
;GenerationSoftware,Autodesk,EAGLE,9.6.2*%
;CreationDate,2023-05-01T19:37:38Z*%
FMAT,2
ICI,OFF
METRIC,TZ,000.000
T4C0.305
T3C0.400
T2C0.650
T1C0.750
%
G90
M71
T1
X110719Y12912
X78765Y123438
X40767Y114938
X34722Y21412
X34722Y12912
X40767Y123438
X2768Y114938
X72720Y21412
X72720Y12912
X2768Y123438
X78765Y114938
X110719Y21412
T2
X21586Y59992
X15806Y59992
X59584Y59992
X53804Y59992
X97583Y59992
X91803Y59992
X59683Y76358
X15904Y76358
X21684Y76358
X53903Y76358
X91901Y76358
X97681Y76358
T3
X90473Y76888
X23014Y63642
X14378Y63642
X14378Y59462
X23014Y59462
X61012Y63642
X52376Y63642
X52376Y59462
X61012Y59462
X99011Y63642
X90375Y63642
X90375Y59462
X99011Y59462
X14476Y72708
X23112Y72708
X23112Y76888
X14476Y76888
X52475Y72708
X61111Y72708
X61111Y76888
X52475Y76888
X90473Y72708
X99109Y72708
X99109Y76888
T4
X16982Y20320
X25338Y28171
X13743Y20320
X29882Y20597
X29567Y18001
X29593Y15494
X30835Y23772
X5465Y26419
X7266Y26670
X979Y29210
X979Y34290
X916Y37656
X9806Y26670
X12346Y26670
X31396Y33020
X31396Y35560
X30911Y53203
X36476Y50800
X36476Y48260
X36476Y35560
X36476Y38100
X36476Y40640
X22887Y50927
X20792Y50927
X916Y48260
X2173Y51044
X2295Y48364
X2504Y46291
X916Y50038
X5084Y63858
X3456Y60960
X3456Y62230
X7291Y63833
X8536Y60960
X8536Y62230
X3456Y59690
X916Y58420
X28856Y60960
X33936Y60960
X30197Y64074
X28856Y62230
X32618Y64051
X33936Y62230
X33936Y59690
X36476Y60960
X11173Y61692
X11975Y63784
X24220Y61979
X30390Y59080
X25109Y64198
X916Y56451
X36476Y53340
X36476Y55880
X36476Y58420
X4713Y50950
X4830Y52738
X4731Y47000
X35137Y41501
X35206Y23391
X35089Y18070
X22206Y24254
X28950Y59517
X8536Y59690
X916Y60960
X916Y63500
X8457Y57765
X3456Y58420
X2740Y63835
X3456Y56451
X33710Y57757
X34675Y63952
X28140Y63978
X9659Y63810
X17045Y10859
X15584Y4953
X17101Y17036
X6423Y10206
X3837Y10160
X2631Y23409
X6694Y21019
X4421Y21062
X9933Y24130
X24881Y8722
X19722Y18826
X19697Y20323
X23304Y18786
X23360Y10536
X24871Y6271
X27162Y8956
X33245Y26114
X16687Y12901
X28221Y23304
X29300Y22098
X12473Y24130
X12156Y4818
X35018Y15502
X35330Y12263
X34845Y4597
X36758Y10513
X22569Y9398
X17538Y9421
X4142Y27699
X5488Y54313
X4711Y45049
X4713Y42669
X5097Y40333
X5188Y56662
X4276Y54933
X3540Y53254
X3382Y51029
X3400Y49012
X3385Y47046
X3405Y45082
X3395Y42733
X3050Y40528
X898Y52111
X842Y54480
X2290Y55192
X2290Y57376
X2092Y53409
X32074Y56797
X33804Y53673
X34038Y51646
X34048Y49545
X34030Y47612
X34180Y45509
X34167Y44191
X33827Y42969
X32699Y41951
X32569Y43482
X32562Y45433
X32679Y47579
X32681Y49649
X32696Y51608
X32430Y53472
X30464Y57701
X34782Y56698
X35503Y54366
X35381Y52078
X35473Y49751
X36344Y47292
X35209Y46380
X34403Y39670
X736Y40604
X2267Y41613
X731Y47384
X13441Y32784
X14386Y32880
X12862Y30805
X14810Y26182
X16862Y26482
X25617Y26015
X22219Y27940
X21678Y26073
X20789Y55875
X20118Y55469
X14279Y54747
X17228Y55118
X27487Y3820
X23530Y4021
X33758Y8275
X32079Y6274
X23494Y16904
X23537Y13741
X36555Y32860
X36555Y30729
X36740Y28120
X21993Y48753
X25308Y48806
X16829Y47709
X16936Y43048
X17462Y40569
X23067Y40086
X21223Y42139
X18152Y45156
X19146Y43332
X19745Y40386
X14508Y40660
X14546Y43937
X14546Y47381
X12818Y49543
X12727Y46116
X12775Y42367
X10063Y36855
X6646Y33736
X10256Y31712
X25125Y36990
X21353Y36937
X24579Y31905
X22117Y31958
X18208Y29962
X19257Y27292
X16872Y32570
X9400Y45748
X28127Y45728
X28132Y49987
X9405Y49939
X9397Y41514
X16034Y53950
X23080Y45547
X25285Y44595
X25183Y20831
X25526Y18021
X25236Y15499
X17970Y60515
X13022Y54740
X17535Y57793
X15844Y56010
X12824Y56832
X4718Y48974
X32483Y56025
X31889Y54524
X30903Y56032
X33372Y54531
X26352Y56304
X9532Y9901
X11838Y3175
X9552Y5207
X8790Y5200
X25717Y3061
X33945Y6441
X10886Y23304
X20474Y6032
X19656Y6025
X17980Y6040
X20629Y14953
X19816Y14945
X26286Y59152
X7393Y12509
X6885Y13017
X26297Y58434
X15839Y57219
X18465Y7173
X27776Y21717
X25966Y22929
X21420Y18666
X22050Y21275
X24721Y18052
X17449Y19383
X23998Y16314
X17355Y21331
X27683Y22652
X23612Y15674
X27724Y10719
X16568Y54666
X2568Y24463
X24000Y35657
X29723Y34412
X34063Y12306
X19677Y53947
X33117Y7508
X33390Y12705
X19675Y54897
X32494Y8054
X18174Y53924
X32064Y11877
X18743Y54661
X32148Y12733
X11201Y54145
X12195Y36187
X13815Y54049
X11092Y35469
X3677Y25288
X34770Y9655
X31311Y9289
X33251Y27612
X26533Y53952
X31349Y22220
X30718Y11831
X10649Y17272
X7050Y19764
X25805Y8077
X12763Y12408
X32808Y6312
X26606Y6159
X33383Y5870
X5679Y43525
X13800Y32083
X13597Y55413
X5679Y44635
X13498Y31354
X13617Y56637
X29070Y21153
X23223Y22220
X13414Y2982
X13518Y4290
X26606Y3823
X34412Y7920
X14834Y4757
X14089Y4846
X2845Y25296
X9436Y11984
X4417Y36632
X7244Y27513
X12741Y4018
X6457Y26076
X6365Y24486
X21336Y63500
X10922Y3462
X11458Y12395
X6808Y28432
X18966Y59793
X17747Y59793
X23203Y53909
X2466Y12723
X2482Y15898
X20173Y61328
X20198Y60670
X25395Y61455
X25370Y62189
X71553Y29113
X71287Y11725
X55361Y11850
X52567Y11786
X72356Y29113
X52567Y10961
X60299Y12345
X51388Y17468
X40545Y11685
X40484Y14860
X66042Y3035
X45109Y58816
X48660Y57688
X44449Y56134
X70385Y59058
X64838Y61095
X43227Y58506
X51185Y58420
X49118Y59703
X54789Y3048
X47106Y4255
X59653Y6794
X64556Y3023
X67870Y11938
X44712Y14961
X43967Y12446
X41518Y15049
X41454Y12509
X38676Y13764
X38635Y10183
X38683Y7656
X41454Y4699
X44058Y4699
X47627Y6487
X46344Y12446
X48427Y15420
X52503Y12763
X51614Y15240
X55076Y18230
X53456Y8890
X53710Y6032
X44820Y6604
X55424Y7874
X62486Y12370
X64314Y11430
X66796Y11506
X52884Y19050
X56694Y15049
X54980Y20320
X63337Y28171
X51741Y20320
X67881Y20597
X67566Y18001
X67591Y15494
X68833Y23772
X43464Y26419
X45264Y26670
X38978Y29210
X38978Y34290
X38914Y37656
X47804Y26670
X50344Y26670
X69394Y33020
X69394Y35560
X68909Y53203
X74474Y50800
X74474Y48260
X74474Y35560
X74474Y38100
X74474Y40640
X60885Y50927
X58790Y50927
X38914Y48260
X40172Y51044
X40294Y48364
X40502Y46291
X38914Y50038
X43083Y63858
X41454Y60960
X41454Y62230
X45290Y63833
X46534Y60960
X46534Y62230
X41454Y59690
X38914Y58420
X66854Y60960
X71934Y60960
X68196Y64074
X66854Y62230
X70616Y64051
X71934Y62230
X71934Y59690
X74474Y60960
X49171Y61692
X49974Y63784
X62219Y61979
X68389Y59080
X63108Y64198
X38914Y56451
X74474Y53340
X74474Y55880
X74474Y58420
X42712Y50950
X42829Y52738
X42729Y47000
X73136Y41501
X73204Y23391
X73088Y18070
X60205Y24254
X66948Y59517
X46534Y59690
X38914Y60960
X38914Y63500
X46456Y57765
X41454Y58420
X40738Y63835
X41454Y56451
X71708Y57757
X72674Y63952
X66138Y63978
X47657Y63810
X55043Y10859
X53583Y4953
X55099Y17036
X44421Y10206
X41835Y10160
X40629Y23409
X44693Y21019
X42420Y21062
X47931Y24130
X62879Y8722
X57721Y18826
X57695Y20323
X61302Y18786
X61359Y10536
X62869Y6271
X65160Y8956
X71244Y26114
X54685Y12901
X66219Y23304
X67299Y22098
X50471Y24130
X50154Y4818
X73016Y15502
X73329Y12263
X72844Y4597
X74756Y10513
X60568Y9398
X55536Y9421
X42140Y27699
X43486Y54313
X42709Y45049
X42712Y42669
X43095Y40333
X43187Y56662
X42275Y54933
X41538Y53254
X41381Y51029
X41399Y49012
X41383Y47046
X41404Y45082
X41393Y42733
X41048Y40528
X38897Y52111
X38841Y54480
X40289Y55192
X40289Y57376
X40090Y53409
X70073Y56797
X71802Y53673
X72036Y51646
X72046Y49545
X72028Y47612
X72178Y45509
X72166Y44191
X71825Y42969
X70697Y41951
X70568Y43482
X70560Y45433
X70677Y47579
X70680Y49649
X70695Y51608
X70428Y53472
X68462Y57701
X72780Y56698
X73502Y54366
X73380Y52078
X73471Y49751
X74342Y47292
X73207Y46380
X72402Y39670
X38734Y40604
X40266Y41613
X38729Y47384
X51439Y32784
X52384Y32880
X50860Y30805
X52808Y26182
X54861Y26482
X63616Y26015
X60217Y27940
X59676Y26073
X58787Y55875
X58117Y55469
X52277Y54747
X55226Y55118
X65485Y3820
X61528Y4021
X71757Y8275
X70078Y6274
X61492Y16904
X61536Y13741
X74553Y32860
X74553Y30729
X74739Y28120
X59991Y48753
X63306Y48806
X54827Y47709
X54934Y43048
X55460Y40569
X61066Y40086
X59222Y42139
X56151Y45156
X57144Y43332
X57743Y40386
X52506Y40660
X52544Y43937
X52544Y47381
X50817Y49543
X50725Y46116
X50774Y42367
X48061Y36855
X44645Y33736
X48254Y31712
X63123Y36990
X59351Y36937
X62577Y31905
X60116Y31958
X56207Y29962
X57256Y27292
X54871Y32570
X47398Y45748
X66125Y45728
X66131Y49987
X47403Y49939
X47395Y41514
X54032Y53950
X61078Y45547
X63283Y44595
X63182Y20831
X63524Y18021
X63235Y15499
X55968Y60515
X51020Y54740
X55534Y57793
X53842Y56010
X50822Y56832
X42717Y48974
X70482Y56025
X69887Y54524
X68902Y56032
X71371Y54531
X64350Y56304
X47530Y9901
X49836Y3175
X47550Y5207
X46788Y5200
X63716Y3061
X71943Y6441
X48884Y23304
X58472Y6032
X57655Y6025
X55978Y6040
X58627Y14953
X57815Y14945
X64284Y59152
X45391Y12509
X44883Y13017
X64295Y58434
X53838Y57219
X56463Y7173
X65775Y21717
X63965Y22929
X59418Y18666
X60048Y21275
X62719Y18052
X55447Y19383
X61996Y16314
X55353Y21331
X65681Y22652
X61610Y15674
X65722Y10719
X54567Y54666
X40566Y24463
X61999Y35657
X67721Y34412
X72061Y12306
X57676Y53947
X71115Y7508
X71388Y12705
X57673Y54897
X70493Y8054
X56172Y53924
X70062Y11877
X56741Y54661
X70146Y12733
X49200Y54145
X50193Y36187
X51813Y54049
X49091Y35469
X41675Y25288
X72768Y9655
X69309Y9289
X71250Y27612
X64531Y53952
X69347Y22220
X68716Y11831
X48648Y17272
X45048Y19764
X63804Y8077
X50761Y12408
X70806Y6312
X64605Y6159
X71382Y5870
X43678Y43525
X51798Y32083
X51595Y55413
X43678Y44635
X51496Y31354
X51615Y56637
X67069Y21153
X61222Y22220
X51412Y2982
X51516Y4290
X64605Y3823
X72410Y7920
X52832Y4757
X52088Y4846
X40843Y25296
X47434Y11984
X42415Y36632
X45242Y27513
X50739Y4018
X44455Y26076
X44364Y24486
X59334Y63500
X48920Y3462
X49457Y12395
X44806Y28432
X56964Y59793
X55745Y59793
X61201Y53909
X40465Y12723
X40480Y15898
X58171Y61328
X58196Y60670
X63393Y61455
X63368Y62189
X109552Y29113
X109285Y11725
X93359Y11850
X90565Y11786
X110354Y29113
X90565Y10961
X98297Y12345
X89387Y17468
X78543Y11685
X78483Y14860
X104040Y3035
X83108Y58816
X86659Y57688
X82447Y56134
X108383Y59058
X102836Y61095
X81226Y58506
X89184Y58420
X87116Y59703
X92788Y3048
X85104Y4255
X97652Y6794
X102554Y3023
X105869Y11938
X82710Y14961
X81966Y12446
X79516Y15049
X79453Y12509
X76674Y13764
X76633Y10183
X76682Y7656
X79453Y4699
X82056Y4699
X85625Y6487
X84342Y12446
X86425Y15420
X90502Y12763
X89613Y15240
X93075Y18230
X91454Y8890
X91708Y6032
X82818Y6604
X93423Y7874
X100484Y12370
X102313Y11430
X104794Y11506
X90883Y19050
X94693Y15049
X92978Y20320
X101335Y28171
X89740Y20320
X105879Y20597
X105564Y18001
X105589Y15494
X106831Y23772
X81462Y26419
X83263Y26670
X76976Y29210
X76976Y34290
X76913Y37656
X85803Y26670
X88343Y26670
X107393Y33020
X107393Y35560
X106908Y53203
X112473Y50800
X112473Y48260
X112473Y35560
X112473Y38100
X112473Y40640
X98884Y50927
X96788Y50927
X76913Y48260
X78170Y51044
X78292Y48364
X78500Y46291
X76913Y50038
X81081Y63858
X79453Y60960
X79453Y62230
X83288Y63833
X84533Y60960
X84533Y62230
X79453Y59690
X76913Y58420
X104853Y60960
X109933Y60960
X106194Y64074
X104853Y62230
X108615Y64051
X109933Y62230
X109933Y59690
X112473Y60960
X87169Y61692
X87972Y63784
X100217Y61979
X106387Y59080
X101106Y64198
X76913Y56451
X112473Y53340
X112473Y55880
X112473Y58420
X80710Y50950
X80827Y52738
X80728Y47000
X111134Y41501
X111203Y23391
X111086Y18070
X98203Y24254
X104947Y59517
X84533Y59690
X76913Y60960
X76913Y63500
X84454Y57765
X79453Y58420
X78737Y63835
X79453Y56451
X109707Y57757
X110672Y63952
X104137Y63978
X85655Y63810
X93042Y10859
X91581Y4953
X93098Y17036
X82420Y10206
X79834Y10160
X78627Y23409
X82691Y21019
X80418Y21062
X85930Y24130
X100878Y8722
X95719Y18826
X95694Y20323
X99300Y18786
X99357Y10536
X100868Y6271
X103159Y8956
X109242Y26114
X92684Y12901
X104218Y23304
X105297Y22098
X88470Y24130
X88152Y4818
X111015Y15502
X111327Y12263
X110842Y4597
X112755Y10513
X98566Y9398
X93535Y9421
X80139Y27699
X81485Y54313
X80708Y45049
X80710Y42669
X81094Y40333
X81185Y56662
X80273Y54933
X79537Y53254
X79379Y51029
X79397Y49012
X79382Y47046
X79402Y45082
X79392Y42733
X79046Y40528
X76895Y52111
X76839Y54480
X78287Y55192
X78287Y57376
X78089Y53409
X108071Y56797
X109801Y53673
X110034Y51646
X110045Y49545
X110027Y47612
X110177Y45509
X110164Y44191
X109824Y42969
X108696Y41951
X108566Y43482
X108559Y45433
X108675Y47579
X108678Y49649
X108693Y51608
X108427Y53472
X106461Y57701
X110779Y56698
X111500Y54366
X111378Y52078
X111469Y49751
X112341Y47292
X111205Y46380
X110400Y39670
X76732Y40604
X78264Y41613
X76727Y47384
X89438Y32784
X90382Y32880
X88858Y30805
X90807Y26182
X92859Y26482
X101614Y26015
X98216Y27940
X97675Y26073
X96786Y55875
X96115Y55469
X90276Y54747
X93225Y55118
X103484Y3820
X99526Y4021
X109755Y8275
X108076Y6274
X99491Y16904
X99534Y13741
X112552Y32860
X112552Y30729
X112737Y28120
X97990Y48753
X101304Y48806
X92826Y47709
X92933Y43048
X93458Y40569
X99064Y40086
X97220Y42139
X94149Y45156
X95142Y43332
X95742Y40386
X90504Y40660
X90542Y43937
X90542Y47381
X88815Y49543
X88724Y46116
X88772Y42367
X86059Y36855
X82643Y33736
X86252Y31712
X101122Y36990
X97350Y36937
X100575Y31905
X98114Y31958
X94205Y29962
X95254Y27292
X92869Y32570
X85396Y45748
X104124Y45728
X104129Y49987
X85401Y49939
X85394Y41514
X92031Y53950
X99077Y45547
X101282Y44595
X101180Y20831
X101523Y18021
X101233Y15499
X93966Y60515
X89018Y54740
X93532Y57793
X91840Y56010
X88820Y56832
X80715Y48974
X108480Y56025
X107886Y54524
X106900Y56032
X109369Y54531
X102348Y56304
X85528Y9901
X87835Y3175
X85549Y5207
X84787Y5200
X101714Y3061
X109941Y6441
X86882Y23304
X96471Y6032
X95653Y6025
X93977Y6040
X96626Y14953
X95813Y14945
X102282Y59152
X83390Y12509
X82882Y13017
X102294Y58434
X91836Y57219
X94462Y7173
X103773Y21717
X101963Y22929
X97417Y18666
X98047Y21275
X100718Y18052
X93446Y19383
X99995Y16314
X93352Y21331
X103679Y22652
X99609Y15674
X103720Y10719
X92565Y54666
X78565Y24463
X99997Y35657
X105720Y34412
X110060Y12306
X95674Y53947
X109113Y7508
X109387Y12705
X95672Y54897
X108491Y8054
X94170Y53924
X108061Y11877
X94739Y54661
X108145Y12733
X87198Y54145
X88191Y36187
X89812Y54049
X87089Y35469
X79674Y25288
X110767Y9655
X107307Y9289
X109248Y27612
X102530Y53952
X107345Y22220
X106715Y11831
X86646Y17272
X83047Y19764
X101802Y8077
X88759Y12408
X108804Y6312
X102603Y6159
X109380Y5870
X81676Y43525
X89797Y32083
X89593Y55413
X81676Y44635
X89494Y31354
X89614Y56637
X105067Y21153
X99220Y22220
X89411Y2982
X89515Y4290
X102603Y3823
X110409Y7920
X90830Y4757
X90086Y4846
X78842Y25296
X85433Y11984
X80414Y36632
X83241Y27513
X88737Y4018
X82453Y26076
X82362Y24486
X97333Y63500
X86919Y3462
X87455Y12395
X82804Y28432
X94962Y59793
X93744Y59793
X99200Y53909
X78463Y12723
X78478Y15898
X96169Y61328
X96195Y60670
X101392Y61455
X101366Y62189
X3935Y107236
X4202Y124625
X20128Y124500
X22922Y124563
X3133Y107236
X22922Y125389
X15190Y124004
X24100Y118881
X34944Y124665
X35005Y121490
X9447Y133314
X30379Y77534
X26828Y78661
X31040Y80216
X5104Y77292
X10651Y75255
X32261Y77843
X24304Y77930
X26371Y76647
X20699Y133302
X28383Y132095
X15835Y129555
X10933Y133327
X7618Y124412
X30777Y121389
X31521Y123904
X33971Y121300
X34034Y123840
X36813Y122585
X36854Y126167
X36806Y128694
X34034Y131651
X31431Y131651
X27862Y129863
X29145Y123904
X27062Y120929
X22985Y123586
X23874Y121110
X20412Y118120
X22033Y127460
X21779Y130317
X30669Y129746
X20064Y128476
X13003Y123980
X11174Y124920
X8693Y124844
X22604Y117300
X18794Y121300
X20509Y116030
X12152Y108179
X23747Y116030
X7608Y115753
X7923Y118349
X7898Y120856
X6656Y112578
X32025Y109931
X30224Y109680
X36511Y107140
X36511Y102060
X36574Y98694
X27684Y109680
X25144Y109680
X6094Y103330
X6094Y100790
X6580Y83147
X1014Y85550
X1014Y88090
X1014Y100790
X1014Y98250
X1014Y95710
X14603Y85423
X16699Y85423
X36574Y88090
X35317Y85306
X35195Y87986
X34987Y90058
X36574Y86312
X32406Y72492
X34034Y75390
X34034Y74120
X30199Y72517
X28954Y75390
X28954Y74120
X34034Y76660
X36574Y77930
X8634Y75390
X3554Y75390
X7293Y72276
X8634Y74120
X4873Y72299
X3554Y74120
X3554Y76660
X1014Y75390
X26318Y74658
X25515Y72565
X13270Y74371
X7100Y77269
X12381Y72151
X36574Y79898
X1014Y83010
X1014Y80470
X1014Y77930
X32777Y85400
X32660Y83612
X32759Y89350
X2353Y94849
X2284Y112959
X2401Y118280
X15284Y112095
X8540Y76832
X28954Y76660
X36574Y75390
X36574Y72850
X29033Y78585
X34034Y77930
X34751Y72514
X34034Y79898
X3780Y78593
X2815Y72398
X9351Y72372
X27832Y72540
X20445Y125491
X21906Y131397
X20390Y119314
X31068Y126144
X33653Y126190
X34860Y112941
X30796Y115331
X33069Y115288
X27557Y112220
X12609Y127627
X17768Y117523
X17794Y116027
X14187Y117564
X14130Y125814
X12620Y130078
X10329Y127394
X4245Y110236
X20804Y123449
X9269Y113045
X8190Y114252
X25017Y112220
X25335Y131531
X2472Y120848
X2160Y124087
X2645Y131752
X732Y125837
X14921Y126952
X19953Y126929
X33349Y108651
X32002Y82037
X32780Y91300
X32777Y93680
X32394Y96017
X32302Y79687
X33214Y81417
X33951Y83096
X34108Y85321
X34090Y87338
X34106Y89304
X34085Y91267
X34095Y93617
X34441Y95822
X36592Y84239
X36648Y81869
X35200Y81158
X35200Y78974
X35398Y82941
X5416Y79553
X3686Y82677
X3453Y84704
X3443Y86805
X3460Y88737
X3311Y90841
X3323Y92159
X3664Y93381
X4791Y94399
X4921Y92867
X4929Y90917
X4812Y88770
X4809Y86700
X4794Y84742
X5061Y82878
X7027Y78649
X2709Y79652
X1987Y81984
X2109Y84272
X2018Y86599
X1146Y89057
X2282Y89969
X3087Y96680
X36755Y95745
X35223Y94737
X36760Y88966
X24050Y103566
X23105Y103469
X24629Y105545
X22681Y110167
X20628Y109868
X11873Y110335
X15271Y108410
X15812Y110277
X16701Y80475
X17372Y80881
X23211Y81603
X20263Y81232
X10003Y132530
X13961Y132329
X3732Y128074
X5411Y130076
X13996Y119446
X13953Y122608
X936Y103490
X936Y105621
X750Y108229
X15497Y87597
X12183Y87544
X20661Y88641
X20555Y93302
X20029Y95781
X14423Y96263
X16267Y94211
X19338Y91194
X18345Y93017
X17745Y95964
X22983Y95689
X22945Y92413
X22945Y88969
X24672Y86807
X24763Y90233
X24715Y93983
X27428Y99494
X30844Y102613
X27235Y104638
X12366Y99360
X16138Y99413
X12912Y104445
X15373Y104391
X19282Y106388
X18233Y109057
X20618Y103779
X28091Y90602
X9363Y90622
X9358Y86363
X28086Y86411
X28093Y94836
X21456Y82400
X14410Y90802
X12206Y91755
X12307Y115519
X11964Y118328
X12254Y120851
X19521Y75834
X24469Y81610
X19955Y78557
X21647Y80340
X24667Y79517
X32772Y87376
X5007Y80325
X5602Y81826
X6587Y80317
X4118Y81818
X11139Y80046
X27959Y126449
X25652Y133175
X27938Y131143
X28700Y131150
X11773Y133289
X3546Y129908
X26605Y113045
X17016Y130317
X17834Y130325
X19511Y130310
X16861Y121397
X17674Y121404
X11205Y77198
X30097Y123840
X30605Y123332
X11193Y77916
X21651Y79131
X19026Y129177
X9714Y114633
X11524Y113421
X16071Y117683
X15441Y115075
X12770Y118298
X20042Y116967
X13492Y120035
X20136Y115019
X9808Y113698
X13879Y120675
X9767Y125631
X20922Y81684
X34922Y111887
X13490Y100693
X7767Y101938
X3427Y124043
X17813Y82403
X4374Y128841
X4101Y123645
X17816Y81453
X4996Y128295
X19317Y82426
X5426Y124473
X18748Y81689
X5343Y123617
X26289Y82205
X25296Y100162
X23675Y82301
X26398Y100881
X33813Y111062
X2720Y126695
X6180Y127061
X4239Y108737
X10958Y82398
X6142Y114130
X6773Y124518
X26841Y119078
X30440Y116586
X11685Y128273
X24728Y123942
X4683Y130038
X10884Y130190
X4107Y130480
X31811Y92824
X23691Y104267
X23894Y80937
X31811Y91714
X23993Y104996
X23873Y79713
X8420Y115197
X14267Y114130
X24077Y133368
X23973Y132060
X10884Y132527
X3078Y128430
X22657Y131592
X23401Y131503
X34646Y111054
X28054Y124366
X33073Y99718
X30246Y108836
X24750Y132331
X31034Y110274
X31125Y111864
X16154Y72850
X26568Y132888
X26032Y123955
X30683Y107917
X18525Y76556
X19743Y76556
X14287Y82441
X35024Y123627
X35009Y120452
X17318Y75021
X17292Y75679
X12095Y74894
X12121Y74160
X41934Y107236
X42200Y124625
X58126Y124500
X60920Y124563
X41131Y107236
X60920Y125389
X53189Y124004
X62099Y118881
X72942Y124665
X73003Y121490
X47446Y133314
X68378Y77534
X64827Y78661
X69038Y80216
X43102Y77292
X48650Y75255
X70260Y77843
X62302Y77930
X64370Y76647
X58698Y133302
X66381Y132095
X53834Y129555
X48931Y133327
X45617Y124412
X68776Y121389
X69520Y123904
X71969Y121300
X72033Y123840
X74812Y122585
X74852Y126167
X74804Y128694
X72033Y131651
X69429Y131651
X65861Y129863
X67143Y123904
X65060Y120929
X60984Y123586
X61873Y121110
X58411Y118120
X60031Y127460
X59777Y130317
X68667Y129746
X58063Y128476
X51002Y123980
X49173Y124920
X46691Y124844
X60603Y117300
X56793Y121300
X58507Y116030
X50151Y108179
X61746Y116030
X45607Y115753
X45922Y118349
X45896Y120856
X44654Y112578
X70024Y109931
X68223Y109680
X74509Y107140
X74509Y102060
X74573Y98694
X65683Y109680
X63143Y109680
X44093Y103330
X44093Y100790
X44578Y83147
X39013Y85550
X39013Y88090
X39013Y100790
X39013Y98250
X39013Y95710
X52602Y85423
X54697Y85423
X74573Y88090
X73316Y85306
X73194Y87986
X72985Y90058
X74573Y86312
X70405Y72492
X72033Y75390
X72033Y74120
X68197Y72517
X66953Y75390
X66953Y74120
X72033Y76660
X74573Y77930
X46633Y75390
X41553Y75390
X45292Y72276
X46633Y74120
X42871Y72299
X41553Y74120
X41553Y76660
X39013Y75390
X64316Y74658
X63514Y72565
X51268Y74371
X45099Y77269
X50379Y72151
X74573Y79898
X39013Y83010
X39013Y80470
X39013Y77930
X70776Y85400
X70659Y83612
X70758Y89350
X40351Y94849
X40283Y112959
X40400Y118280
X53283Y112095
X46539Y76832
X66953Y76660
X74573Y75390
X74573Y72850
X67032Y78585
X72033Y77930
X72749Y72514
X72033Y79898
X41779Y78593
X40814Y72398
X47349Y72372
X65830Y72540
X58444Y125491
X59904Y131397
X58388Y119314
X69066Y126144
X71652Y126190
X72858Y112941
X68794Y115331
X71068Y115288
X65556Y112220
X50608Y127627
X55767Y117523
X55792Y116027
X52185Y117564
X52128Y125814
X50618Y130078
X48327Y127394
X42244Y110236
X58802Y123449
X47268Y113045
X46188Y114252
X63016Y112220
X63333Y131531
X40471Y120848
X40158Y124087
X40643Y131752
X38731Y125837
X52919Y126952
X57951Y126929
X71347Y108651
X70001Y82037
X70778Y91300
X70775Y93680
X70392Y96017
X70301Y79687
X71212Y81417
X71949Y83096
X72106Y85321
X72089Y87338
X72104Y89304
X72084Y91267
X72094Y93617
X72439Y95822
X74591Y84239
X74646Y81869
X73199Y81158
X73199Y78974
X73397Y82941
X43415Y79553
X41685Y82677
X41451Y84704
X41441Y86805
X41459Y88737
X41309Y90841
X41322Y92159
X41662Y93381
X42790Y94399
X42919Y92867
X42927Y90917
X42810Y88770
X42808Y86700
X42792Y84742
X43059Y82878
X45025Y78649
X40707Y79652
X39986Y81984
X40108Y84272
X40016Y86599
X39145Y89057
X40280Y89969
X41085Y96680
X74753Y95745
X73222Y94737
X74758Y88966
X62048Y103566
X61103Y103469
X62627Y105545
X60679Y110167
X58627Y109868
X49871Y110335
X53270Y108410
X53811Y110277
X54700Y80475
X55370Y80881
X61210Y81603
X58261Y81232
X48002Y132530
X51959Y132329
X41731Y128074
X43410Y130076
X51995Y119446
X51952Y122608
X38934Y103490
X38934Y105621
X38749Y108229
X53496Y87597
X50181Y87544
X58660Y88641
X58553Y93302
X58027Y95781
X52421Y96263
X54265Y94211
X57336Y91194
X56343Y93017
X55744Y95964
X60981Y95689
X60943Y92413
X60943Y88969
X62670Y86807
X62762Y90233
X62714Y93983
X65426Y99494
X68843Y102613
X65233Y104638
X50364Y99360
X54136Y99413
X50910Y104445
X53371Y104391
X57280Y106388
X56231Y109057
X58617Y103779
X33555Y29113
X47362Y90622
X47357Y86363
X66084Y86411
X66092Y94836
X59455Y82400
X52409Y90802
X50204Y91755
X50306Y115519
X49963Y118328
X50252Y120851
X57519Y75834
X62467Y81610
X57954Y78557
X59645Y80340
X62665Y79517
X70770Y87376
X43006Y80325
X43600Y81826
X44586Y80317
X42117Y81818
X49137Y80046
X65957Y126449
X63651Y133175
X65937Y131143
X66699Y131150
X49771Y133289
X41544Y129908
X64603Y113045
X55015Y130317
X55833Y130325
X57509Y130310
X54860Y121397
X55673Y121404
X49203Y77198
X68096Y123840
X68604Y123332
X49192Y77916
X59649Y79131
X57024Y129177
X47712Y114633
X49522Y113421
X54069Y117683
X53439Y115075
X50768Y118298
X58040Y116967
X51491Y120035
X58134Y115019
X47806Y113698
X51877Y120675
X47765Y125631
X58920Y81684
X72921Y111887
X51488Y100693
X45766Y101938
X41426Y124043
X55811Y82403
X42372Y128841
X42099Y123645
X55814Y81453
X42995Y128295
X57315Y82426
X43425Y124473
X56746Y81689
X43341Y123617
X64287Y82205
X63294Y100162
X61674Y82301
X64397Y100881
X71812Y111062
X40719Y126695
X44178Y127061
X42238Y108737
X48956Y82398
X44140Y114130
X44771Y124518
X64840Y119078
X68439Y116586
X49683Y128273
X62726Y123942
X42681Y130038
X48882Y130190
X42106Y130480
X69809Y92824
X61689Y104267
X61892Y80937
X69809Y91714
X61991Y104996
X61872Y79713
X46418Y115197
X52266Y114130
X62075Y133368
X61971Y132060
X48882Y132527
X41077Y128430
X60655Y131592
X61399Y131503
X72644Y111054
X66053Y124366
X71072Y99718
X68245Y108836
X62748Y132331
X69032Y110274
X69124Y111864
X54153Y72850
X64567Y132888
X64031Y123955
X68681Y107917
X56523Y76556
X57742Y76556
X52286Y82441
X73022Y123627
X73007Y120452
X55316Y75021
X55291Y75679
X50094Y74894
X50119Y74160
X79932Y107236
X80199Y124625
X96125Y124500
X98919Y124563
X79130Y107236
X98919Y125389
X91187Y124004
X100097Y118881
X110941Y124665
X111001Y121490
X85444Y133314
X106376Y77534
X102825Y78661
X107037Y80216
X81101Y77292
X86648Y75255
X108258Y77843
X100300Y77930
X102368Y76647
X96696Y133302
X104380Y132095
X91832Y129555
X86930Y133327
X83615Y124412
X106774Y121389
X107518Y123904
X109968Y121300
X110031Y123840
X112810Y122585
X112851Y126167
X112802Y128694
X110031Y131651
X107428Y131651
X103859Y129863
X105142Y123904
X103059Y120929
X98982Y123586
X99871Y121110
X96409Y118120
X98030Y127460
X97776Y130317
X106666Y129746
X96061Y128476
X89000Y123980
X87171Y124920
X84690Y124844
X98601Y117300
X94791Y121300
X96506Y116030
X88149Y108179
X99744Y116030
X83605Y115753
X83920Y118349
X83895Y120856
X82653Y112578
X108022Y109931
X106221Y109680
X112508Y107140
X112508Y102060
X112571Y98694
X103681Y109680
X101141Y109680
X82091Y103330
X82091Y100790
X82576Y83147
X77011Y85550
X77011Y88090
X77011Y100790
X77011Y98250
X77011Y95710
X90600Y85423
X92696Y85423
X112571Y88090
X111314Y85306
X111192Y87986
X110984Y90058
X112571Y86312
X108403Y72492
X110031Y75390
X110031Y74120
X106196Y72517
X104951Y75390
X104951Y74120
X110031Y76660
X112571Y77930
X84631Y75390
X79551Y75390
X83290Y72276
X84631Y74120
X80869Y72299
X79551Y74120
X79551Y76660
X77011Y75390
X102315Y74658
X101512Y72565
X89267Y74371
X83097Y77269
X88378Y72151
X112571Y79898
X77011Y83010
X77011Y80470
X77011Y77930
X108774Y85400
X108657Y83612
X108756Y89350
X78350Y94849
X78281Y112959
X78398Y118280
X91281Y112095
X84537Y76832
X104951Y76660
X112571Y75390
X112571Y72850
X105030Y78585
X110031Y77930
X110747Y72514
X110031Y79898
X79777Y78593
X78812Y72398
X85347Y72372
X103829Y72540
X96442Y125491
X97903Y131397
X96386Y119314
X107064Y126144
X109650Y126190
X110857Y112941
X106793Y115331
X109066Y115288
X103554Y112220
X88606Y127627
X93765Y117523
X93790Y116027
X90184Y117564
X90127Y125814
X88616Y130078
X86325Y127394
X80242Y110236
X96800Y123449
X85266Y113045
X84187Y114252
X101014Y112220
X101332Y131531
X78469Y120848
X78157Y124087
X78642Y131752
X76729Y125837
X90918Y126952
X95949Y126929
X109345Y108651
X107999Y82037
X108776Y91300
X108774Y93680
X108390Y96017
X108299Y79687
X109211Y81417
X109947Y83096
X110105Y85321
X110087Y87338
X110102Y89304
X110082Y91267
X110092Y93617
X66089Y90602
X112589Y84239
X112645Y81869
X111197Y81158
X111197Y78974
X111395Y82941
X81413Y79553
X79683Y82677
X79450Y84704
X79439Y86805
X79457Y88737
X79307Y90841
X79320Y92159
X79660Y93381
X80788Y94399
X80918Y92867
X80925Y90917
X80809Y88770
X80806Y86700
X80791Y84742
X81057Y82878
X83023Y78649
X78705Y79652
X77984Y81984
X78106Y84272
X78015Y86599
X77143Y89057
X78279Y89969
X79084Y96680
X112752Y95745
X111220Y94737
X112757Y88966
X100046Y103566
X99102Y103469
X100626Y105545
X98677Y110167
X96625Y109868
X87870Y110335
X91268Y108410
X91809Y110277
X92698Y80475
X93369Y80881
X99208Y81603
X96259Y81232
X86000Y132530
X89958Y132329
X79729Y128074
X81408Y130076
X89993Y119446
X89950Y122608
X76932Y103490
X76932Y105621
X76747Y108229
X91494Y87597
X88180Y87544
X96658Y88641
X96551Y93302
X96026Y95781
X90420Y96263
X92264Y94211
X95335Y91194
X94342Y93017
X93742Y95964
X98980Y95689
X98942Y92413
X98942Y88969
X100669Y86807
X100760Y90233
X100712Y93983
X103425Y99494
X106841Y102613
X103232Y104638
X88362Y99360
X92134Y99413
X88909Y104445
X91370Y104391
X95279Y106388
X94230Y109057
X96615Y103779
X104088Y90602
X85360Y90622
X85355Y86363
X104083Y86411
X104090Y94836
X97453Y82400
X90407Y90802
X88202Y91755
X88304Y115519
X87961Y118328
X88251Y120851
X95518Y75834
X100466Y81610
X95952Y78557
X97644Y80340
X100664Y79517
X108769Y87376
X81004Y80325
X81598Y81826
X82584Y80317
X80115Y81818
X87136Y80046
X103956Y126449
X101649Y133175
X103935Y131143
X104697Y131150
X87770Y133289
X79543Y129908
X102602Y113045
X93013Y130317
X93831Y130325
X95507Y130310
X92858Y121397
X93671Y121404
X87202Y77198
X106094Y123840
X106602Y123332
X87190Y77916
X97648Y79131
X95022Y129177
X85711Y114633
X87521Y113421
X92067Y117683
X91437Y115075
X88766Y118298
X96038Y116967
X89489Y120035
X96132Y115019
X85805Y113698
X89875Y120675
X85764Y125631
X96919Y81684
X110919Y111887
X89487Y100693
X83764Y101938
X79424Y124043
X93810Y82403
X80371Y128841
X80097Y123645
X93812Y81453
X80993Y128295
X95313Y82426
X81423Y124473
X94745Y81689
X81339Y123617
X102286Y82205
X101293Y100162
X99672Y82301
X102395Y100881
X109810Y111062
X78717Y126695
X82177Y127061
X80236Y108737
X86954Y82398
X82139Y114130
X82769Y124518
X102838Y119078
X106437Y116586
X87682Y128273
X100725Y123942
X80680Y130038
X86881Y130190
X80104Y130480
X107808Y92824
X99687Y104267
X99891Y80937
X107808Y91714
X99990Y104996
X99870Y79713
X84417Y115197
X90264Y114130
X100073Y133368
X99969Y132060
X86881Y132527
X79075Y128430
X98654Y131592
X99398Y131503
X110642Y111054
X104051Y124366
X109070Y99718
X106243Y108836
X100747Y132331
X107031Y110274
X107122Y111864
X92151Y72850
X102565Y132888
X102029Y123955
X106680Y107917
X94522Y76556
X95740Y76556
X90284Y82441
X111021Y123627
X111006Y120452
X93315Y75021
X93289Y75679
X88092Y74894
X88118Y74160
X33288Y11725
X17363Y11850
X14568Y11786
X34358Y29113
X14568Y10961
X22300Y12345
X13390Y17468
X2547Y11685
X2486Y14860
X28043Y3035
X7111Y58816
X10662Y57688
X6451Y56134
X32387Y59058
X26839Y61095
X5229Y58506
X13187Y58420
X11119Y59703
X16791Y3048
X9108Y4255
X21655Y6794
X26557Y3023
X29872Y11938
X6713Y14961
X36746Y46100
X36746Y41900
X35446Y44000
X746Y41900
X746Y46100
X2046Y44000
X5969Y12446
X3519Y15049
X3456Y12509
X677Y13764
X74744Y46100
X74744Y41900
X73444Y44000
X38744Y41900
X38744Y46100
X40044Y44000
X637Y10183
X685Y7656
X3456Y4699
X6059Y4699
X112743Y46100
X112743Y41900
X111443Y44000
X76743Y41900
X76743Y46100
X78043Y44000
X9628Y6487
X8346Y12446
X10428Y15420
X14505Y12763
X744Y90250
X744Y94450
X2044Y92350
X36744Y94450
X36744Y90250
X35444Y92350
X13616Y15240
X17078Y18230
X15457Y8890
X15711Y6032
X38743Y90250
X38743Y94450
X40043Y92350
X74743Y94450
X74743Y90250
X73443Y92350
X6821Y6604
X17426Y7874
X24487Y12370
X26316Y11430
X76741Y90250
X76741Y94450
X78041Y92350
X112741Y94450
X112741Y90250
X111441Y92350
X28798Y11506
X14886Y19050
X18696Y15049
X110438Y95822
M30